<svg xmlns="http://www.w3.org/2000/svg" viewBox="0 0 480 480" width="480" height="480" role="img" aria-label="A leaf and a lightbulb beside a depleting biological stock">
  <defs>
    <linearGradient id="bgB" x1="0" y1="0" x2="0" y2="1">
      <stop offset="0" stop-color="#faf9f7"/>
      <stop offset="1" stop-color="#e8e6de"/>
    </linearGradient>
    <linearGradient id="leafB" x1="0" y1="1" x2="1" y2="0">
      <stop offset="0" stop-color="#3f6b59"/>
      <stop offset="1" stop-color="#5a8f7a"/>
    </linearGradient>
    <radialGradient id="bulbB" cx="0.4" cy="0.35" r="0.8">
      <stop offset="0" stop-color="#f0d999"/>
      <stop offset="1" stop-color="#c9a84c"/>
    </radialGradient>
  </defs>
  <rect width="480" height="480" fill="url(#bgB)"/>
  <g>
    <path d="M112 330 C70 292 60 214 104 168 C150 120 226 118 268 158 C310 198 306 276 262 318 C220 358 152 366 112 330 Z" fill="url(#leafB)" opacity="0.9"/>
    <path d="M96 344 C140 300 200 226 262 158" fill="none" stroke="#faf9f7" stroke-width="3.4" opacity="0.75"/>
    <g stroke="#faf9f7" stroke-width="2.4" opacity="0.6" fill="none">
      <path d="M136 300 C150 272 152 250 148 232"/>
      <path d="M176 258 C192 232 196 210 192 190"/>
      <path d="M214 216 C228 194 232 176 228 158"/>
    </g>
  </g>
  <g>
    <circle cx="360" cy="196" r="52" fill="url(#bulbB)"/>
    <path d="M360 248 v18" stroke="#9a7d5a" stroke-width="7" stroke-linecap="round"/>
    <path d="M344 272 h32 v10 a8 8 0 0 1 -8 8 h-16 a8 8 0 0 1 -8 -8 Z" fill="#9a7d5a"/>
    <g stroke="#faf9f7" stroke-width="3" opacity="0.85" fill="none" stroke-linecap="round">
      <path d="M360 168 v-16"/>
      <path d="M322 182 l-12 -8"/>
      <path d="M398 182 l12 -8"/>
    </g>
    <path d="M360 174 C344 190 342 202 352 210 C356 214 364 214 368 210 C378 202 376 190 360 174 Z" fill="#faf9f7" opacity="0.55"/>
  </g>
  <g>
    <path d="M58 420 H422" stroke="#4a5568" stroke-width="2"/>
    <g fill="#5a8f7a">
      <rect x="74" y="300" width="30" height="118" rx="4"/>
      <rect x="120" y="322" width="30" height="96" rx="4" opacity="0.86"/>
      <rect x="166" y="348" width="30" height="70" rx="4" opacity="0.72"/>
      <rect x="212" y="370" width="30" height="48" rx="4" opacity="0.58"/>
      <rect x="258" y="386" width="30" height="32" rx="4" opacity="0.44"/>
    </g>
    <g fill="none" stroke="#a55b5b" stroke-width="3.4" stroke-linecap="round" stroke-linejoin="round">
      <path d="M90 286 C160 306 250 356 356 396"/>
      <path d="M334 380 L358 398 L350 370"/>
    </g>
    <path d="M416 262 V420" stroke="#9a9eb0" stroke-width="1.8" stroke-dasharray="6 7" opacity="0.7"/>
  </g>
  <rect x="16" y="16" width="448" height="448" fill="none" stroke="#c9a84c" stroke-width="1.6" stroke-opacity="0.7"/>
</svg>
