<svg xmlns="http://www.w3.org/2000/svg" viewBox="0 0 480 480" width="480" height="480" role="img" aria-label="Globe inside a broken pledge cycle, storm cloud and ballot box">
  <defs>
    <linearGradient id="bg2" x1="0" y1="0" x2="1" y2="1">
      <stop offset="0" stop-color="#faf9f7"/>
      <stop offset="1" stop-color="#ebe7df"/>
    </linearGradient>
    <linearGradient id="globe2" x1="0.15" y1="0" x2="0.9" y2="1">
      <stop offset="0" stop-color="#7fa0c0"/>
      <stop offset="1" stop-color="#3f5f80"/>
    </linearGradient>
    <clipPath id="clip2"><circle cx="240" cy="236" r="92"/></clipPath>
  </defs>
  <rect width="480" height="480" fill="url(#bg2)"/>
  <g fill="none" stroke="#c9a84c" stroke-width="10" stroke-linecap="round" opacity="0.92">
    <path d="M240 62 A174 174 0 0 1 383 145"/>
    <path d="M405 197 A174 174 0 0 1 350 372"/>
    <path d="M286 391 A174 174 0 0 1 130 383"/>
    <path d="M86 330 A174 174 0 0 1 240 62" opacity="0.55" stroke-dasharray="12 14"/>
  </g>
  <path d="M383 145 L406 141 L398 168" fill="none" stroke="#c9a84c" stroke-width="9" stroke-linecap="round" stroke-linejoin="round"/>
  <path d="M130 383 L108 391 L120 412" fill="none" stroke="#c9a84c" stroke-width="9" stroke-linecap="round" stroke-linejoin="round"/>
  <circle cx="240" cy="236" r="92" fill="url(#globe2)"/>
  <g clip-path="url(#clip2)" stroke="#f2f5f8" fill="none" stroke-opacity="0.62" stroke-width="2">
    <path d="M148 236 H332"/>
    <path d="M168 194 H312"/><path d="M168 278 H312"/>
    <path d="M186 154 H294"/><path d="M186 318 H294"/>
    <ellipse cx="240" cy="236" rx="42" ry="92"/>
    <ellipse cx="240" cy="236" rx="76" ry="92"/>
  </g>
  <g fill="#8fa88f" opacity="0.85" clip-path="url(#clip2)">
    <path d="M186 178 q22 -18 44 -4 q16 10 4 26 q-20 18 -40 8 q-16 -10 -8 -30 Z"/>
    <path d="M262 254 q30 -10 44 12 q10 18 -12 30 q-26 14 -40 -8 q-8 -20 8 -34 Z"/>
    <path d="M180 296 q22 -8 30 10 q6 16 -12 22 q-22 8 -30 -10 q-6 -14 12 -22 Z"/>
  </g>
  <circle cx="240" cy="236" r="92" fill="none" stroke="#1a1d24" stroke-opacity="0.18" stroke-width="1.5"/>
  <g>
    <path d="M52 104 q-20 0 -20 -18 q0 -18 20 -18 q6 -16 26 -16 q18 0 24 14 q22 -8 30 10 q8 18 -12 24 q-8 4 -18 4 Z" fill="#4a5568" opacity="0.9"/>
    <path d="M58 118 q14 -6 24 2 q10 8 22 4" fill="none" stroke="#4a5568" stroke-width="3" stroke-opacity="0.5" stroke-linecap="round"/>
    <path d="M76 104 L64 138 L84 132 L74 164" fill="none" stroke="#c9a84c" stroke-width="5" stroke-linejoin="round" stroke-linecap="round"/>
  </g>
  <g>
    <path d="M300 372 L420 372 L420 434 L300 434 Z" fill="#722f37"/>
    <path d="M300 372 L420 372 L412 386 L308 386 Z" fill="#8e3b44"/>
    <rect x="318" y="394" width="84" height="10" rx="3" fill="#3d1620" opacity="0.85"/>
    <g transform="rotate(-14 400 340)">
      <rect x="372" y="322" width="58" height="38" rx="4" fill="#f4f2ee" stroke="#c9a84c" stroke-width="2.4"/>
      <path d="M372 326 L401 348 L430 326" fill="none" stroke="#c9a84c" stroke-width="2.4"/>
    </g>
    <circle cx="300" cy="404" r="7" fill="#c9a84c" opacity="0.8"/>
    <circle cx="420" cy="404" r="7" fill="#c9a84c" opacity="0.8"/>
  </g>
  <rect x="16" y="16" width="448" height="448" fill="none" stroke="#c9a84c" stroke-width="1.6" stroke-opacity="0.7"/>
</svg>
